<svg xmlns="http://www.w3.org/2000/svg" xmlns:xlink="http://www.w3.org/1999/xlink" width="500" zoomAndPan="magnify" viewBox="0 0 375 374.999991" height="500" preserveAspectRatio="xMidYMid meet" version="1.2"><defs><clipPath id="b93faa13d9"><path d="M 61.699219 37.5 L 312.949219 37.5 L 312.949219 288.75 L 61.699219 288.75 Z M 61.699219 37.5 "/></clipPath></defs><g id="555d7f5cb8"><g clip-rule="nonzero" clip-path="url(#b93faa13d9)"><path style=" stroke:none;fill-rule:nonzero;fill:#000000;fill-opacity:1;" d="M 311.757812 161.835938 L 207.683594 152.167969 L 243.167969 109.464844 C 243.285156 109.324219 243.375 109.167969 243.433594 108.996094 C 243.492188 108.824219 243.519531 108.648438 243.511719 108.464844 C 243.503906 108.28125 243.460938 108.109375 243.386719 107.941406 C 243.316406 107.773438 243.214844 107.625 243.085938 107.496094 C 242.957031 107.367188 242.808594 107.265625 242.640625 107.195312 C 242.472656 107.121094 242.300781 107.078125 242.117188 107.070312 C 241.933594 107.0625 241.757812 107.089844 241.585938 107.148438 C 241.410156 107.207031 241.257812 107.296875 241.117188 107.414062 L 198.414062 142.867188 L 188.746094 38.921875 C 188.734375 38.738281 188.6875 38.5625 188.609375 38.394531 C 188.53125 38.230469 188.421875 38.082031 188.289062 37.957031 C 188.152344 37.832031 188 37.734375 187.828125 37.667969 C 187.65625 37.597656 187.476562 37.566406 187.292969 37.566406 C 187.109375 37.570312 186.929688 37.605469 186.761719 37.675781 C 186.589844 37.742188 186.4375 37.839844 186.304688 37.964844 C 186.167969 38.089844 186.0625 38.234375 185.980469 38.402344 C 185.898438 38.566406 185.851562 38.742188 185.835938 38.921875 L 176.234375 142.867188 L 133.5 107.414062 C 133.210938 107.175781 132.878906 107.054688 132.507812 107.054688 C 132.132812 107.054688 131.800781 107.175781 131.511719 107.414062 C 131.265625 107.699219 131.144531 108.03125 131.144531 108.40625 C 131.144531 108.78125 131.265625 109.113281 131.511719 109.398438 L 166.964844 152.101562 L 63.023438 161.769531 C 62.84375 161.78125 62.667969 161.824219 62.503906 161.902344 C 62.339844 161.980469 62.195312 162.085938 62.070312 162.214844 C 61.941406 162.347656 61.84375 162.496094 61.777344 162.664062 C 61.707031 162.835938 61.671875 163.007812 61.667969 163.191406 C 61.664062 163.375 61.699219 163.554688 61.765625 163.726562 C 61.835938 163.898438 61.929688 164.050781 62.058594 164.1875 C 62.183594 164.324219 62.328125 164.429688 62.496094 164.507812 C 62.664062 164.589844 62.839844 164.636719 63.023438 164.648438 L 166.964844 174.3125 L 131.546875 217.082031 C 131.429688 217.222656 131.339844 217.378906 131.28125 217.550781 C 131.222656 217.722656 131.195312 217.902344 131.203125 218.082031 C 131.210938 218.265625 131.253906 218.441406 131.328125 218.605469 C 131.398438 218.773438 131.5 218.921875 131.628906 219.050781 C 131.757812 219.179688 131.90625 219.28125 132.074219 219.355469 C 132.242188 219.429688 132.414062 219.46875 132.597656 219.476562 C 132.78125 219.484375 132.957031 219.457031 133.128906 219.398438 C 133.304688 219.339844 133.460938 219.253906 133.597656 219.136719 L 176.335938 183.648438 L 185.933594 287.625 C 185.949219 287.804688 186 287.976562 186.082031 288.140625 C 186.160156 288.304688 186.269531 288.445312 186.40625 288.570312 C 186.539062 288.691406 186.691406 288.785156 186.863281 288.851562 C 187.03125 288.917969 187.207031 288.949219 187.390625 288.949219 C 187.574219 288.953125 187.75 288.921875 187.921875 288.859375 C 188.09375 288.796875 188.25 288.703125 188.382812 288.578125 C 188.519531 288.457031 188.628906 288.3125 188.707031 288.144531 C 188.789062 287.980469 188.835938 287.808594 188.847656 287.625 L 198.511719 183.648438 L 241.214844 219.136719 C 241.355469 219.253906 241.511719 219.339844 241.683594 219.398438 C 241.855469 219.457031 242.035156 219.484375 242.214844 219.476562 C 242.398438 219.46875 242.574219 219.429688 242.742188 219.355469 C 242.90625 219.28125 243.054688 219.179688 243.183594 219.050781 C 243.3125 218.921875 243.414062 218.773438 243.488281 218.605469 C 243.5625 218.441406 243.601562 218.265625 243.609375 218.082031 C 243.617188 217.902344 243.589844 217.722656 243.53125 217.550781 C 243.472656 217.378906 243.386719 217.222656 243.269531 217.082031 L 207.683594 174.378906 L 311.660156 164.714844 C 311.839844 164.703125 312.015625 164.65625 312.179688 164.574219 C 312.34375 164.496094 312.488281 164.386719 312.613281 164.25 C 312.734375 164.117188 312.828125 163.960938 312.894531 163.789062 C 312.957031 163.617188 312.988281 163.441406 312.984375 163.257812 C 312.984375 162.898438 312.871094 162.585938 312.636719 162.316406 C 312.40625 162.042969 312.113281 161.882812 311.757812 161.835938 Z M 311.757812 161.835938 "/></g><g style="fill:#000000;fill-opacity:1;"><g transform="translate(10.277348, 333.051921)"><path style="stroke:none" d="M 28.3125 0 L 20.84375 0 L 19.328125 -4.421875 L 9.1875 -4.421875 L 7.671875 0 L 0.203125 0 L 11.109375 -28.328125 L 17.453125 -28.328125 Z M 13.9375 -18.40625 L 11.234375 -10.46875 L 17.296875 -10.46875 L 14.59375 -18.40625 L 14.28125 -19.6875 L 14.234375 -19.6875 Z M 13.9375 -18.40625 "/></g></g><g style="fill:#000000;fill-opacity:1;"><g transform="translate(38.785448, 333.051921)"><path style="stroke:none" d="M 14.1875 -21.78125 C 16.132812 -21.78125 17.929688 -21.28125 19.578125 -20.28125 C 21.234375 -19.289062 22.546875 -17.941406 23.515625 -16.234375 C 24.484375 -14.535156 24.96875 -12.679688 24.96875 -10.671875 C 24.96875 -8.640625 24.484375 -6.769531 23.515625 -5.0625 C 22.546875 -3.351562 21.238281 -2 19.59375 -1 C 17.957031 0 16.15625 0.5 14.1875 0.5 C 12.25 0.5 10.566406 -0.0546875 9.140625 -1.171875 L 9.140625 7.140625 L 2.328125 7.140625 L 2.328125 -21.34375 L 7.375 -21.34375 L 8.234375 -19.265625 C 9.804688 -20.941406 11.789062 -21.78125 14.1875 -21.78125 Z M 13.546875 -5.84375 C 14.429688 -5.84375 15.222656 -6.046875 15.921875 -6.453125 C 16.628906 -6.859375 17.1875 -7.421875 17.59375 -8.140625 C 18 -8.867188 18.203125 -9.691406 18.203125 -10.609375 C 18.203125 -11.523438 17.992188 -12.347656 17.578125 -13.078125 C 17.171875 -13.816406 16.613281 -14.394531 15.90625 -14.8125 C 15.195312 -15.226562 14.398438 -15.4375 13.515625 -15.4375 C 12.640625 -15.4375 11.84375 -15.226562 11.125 -14.8125 C 10.40625 -14.394531 9.835938 -13.816406 9.421875 -13.078125 C 9.015625 -12.347656 8.8125 -11.523438 8.8125 -10.609375 C 8.8125 -9.691406 9.019531 -8.867188 9.4375 -8.140625 C 9.851562 -7.421875 10.421875 -6.859375 11.140625 -6.453125 C 11.859375 -6.046875 12.660156 -5.84375 13.546875 -5.84375 Z M 13.546875 -5.84375 "/></g></g><g style="fill:#000000;fill-opacity:1;"><g transform="translate(64.797077, 333.051921)"><path style="stroke:none" d="M 15.46875 -21.78125 C 17.125 -21.78125 18.585938 -21.410156 19.859375 -20.671875 C 21.140625 -19.929688 22.132812 -18.859375 22.84375 -17.453125 C 23.5625 -16.054688 23.921875 -14.40625 23.921875 -12.5 L 23.921875 0 L 17.109375 0 L 17.109375 -11.28125 C 17.109375 -12.632812 16.769531 -13.6875 16.09375 -14.4375 C 15.425781 -15.195312 14.535156 -15.578125 13.421875 -15.578125 C 12.628906 -15.578125 11.898438 -15.390625 11.234375 -15.015625 C 10.578125 -14.648438 10.054688 -14.160156 9.671875 -13.546875 C 9.285156 -12.929688 9.09375 -12.28125 9.09375 -11.59375 L 9.09375 0 L 2.328125 0 L 2.328125 -30.203125 L 9.09375 -30.203125 L 9.09375 -19.34375 C 9.957031 -20.082031 10.96875 -20.671875 12.125 -21.109375 C 13.289062 -21.554688 14.40625 -21.78125 15.46875 -21.78125 Z M 15.46875 -21.78125 "/></g></g><g style="fill:#000000;fill-opacity:1;"><g transform="translate(90.466448, 333.051921)"><path style="stroke:none" d="M 14.03125 -21.765625 C 14.90625 -21.765625 15.769531 -21.613281 16.625 -21.3125 C 17.488281 -21.019531 18.304688 -20.585938 19.078125 -20.015625 L 16.09375 -14.46875 C 15.101562 -15.164062 14.128906 -15.515625 13.171875 -15.515625 C 12.453125 -15.515625 11.785156 -15.320312 11.171875 -14.9375 C 10.566406 -14.5625 10.078125 -14 9.703125 -13.25 C 9.328125 -12.507812 9.140625 -11.632812 9.140625 -10.625 L 9.140625 0 L 2.328125 0 L 2.328125 -21.34375 L 7.5625 -21.34375 L 8.578125 -18.71875 C 9.179688 -19.6875 9.945312 -20.4375 10.875 -20.96875 C 11.800781 -21.5 12.851562 -21.765625 14.03125 -21.765625 Z M 14.03125 -21.765625 "/></g></g><g style="fill:#000000;fill-opacity:1;"><g transform="translate(107.559159, 333.051921)"><path style="stroke:none" d="M 12.5625 0.609375 C 10.425781 0.609375 8.476562 0.113281 6.71875 -0.875 C 4.96875 -1.875 3.582031 -3.222656 2.5625 -4.921875 C 1.550781 -6.628906 1.046875 -8.5 1.046875 -10.53125 C 1.046875 -12.59375 1.554688 -14.484375 2.578125 -16.203125 C 3.597656 -17.921875 4.988281 -19.28125 6.75 -20.28125 C 8.519531 -21.28125 10.476562 -21.78125 12.625 -21.78125 C 14.769531 -21.78125 16.722656 -21.28125 18.484375 -20.28125 C 20.253906 -19.28125 21.648438 -17.921875 22.671875 -16.203125 C 23.691406 -14.484375 24.203125 -12.59375 24.203125 -10.53125 C 24.203125 -8.488281 23.691406 -6.617188 22.671875 -4.921875 C 21.648438 -3.222656 20.25 -1.875 18.46875 -0.875 C 16.6875 0.113281 14.71875 0.609375 12.5625 0.609375 Z M 12.625 -5.78125 C 13.519531 -5.78125 14.332031 -5.988281 15.0625 -6.40625 C 15.800781 -6.820312 16.378906 -7.394531 16.796875 -8.125 C 17.222656 -8.851562 17.4375 -9.664062 17.4375 -10.5625 C 17.4375 -11.476562 17.222656 -12.304688 16.796875 -13.046875 C 16.378906 -13.785156 15.800781 -14.363281 15.0625 -14.78125 C 14.332031 -15.195312 13.519531 -15.40625 12.625 -15.40625 C 11.726562 -15.40625 10.910156 -15.195312 10.171875 -14.78125 C 9.441406 -14.363281 8.863281 -13.785156 8.4375 -13.046875 C 8.019531 -12.304688 7.8125 -11.476562 7.8125 -10.5625 C 7.8125 -9.664062 8.019531 -8.851562 8.4375 -8.125 C 8.863281 -7.394531 9.441406 -6.820312 10.171875 -6.40625 C 10.910156 -5.988281 11.726562 -5.78125 12.625 -5.78125 Z M 12.625 -5.78125 "/></g></g><g style="fill:#000000;fill-opacity:1;"><g transform="translate(132.80574, 333.051921)"><path style="stroke:none" d="M 16.875 -30.21875 L 23.671875 -30.21875 L 23.671875 0 L 18.4375 0 L 17.703125 -1.9375 C 16.171875 -0.3125 14.207031 0.5 11.8125 0.5 C 9.851562 0.5 8.050781 0 6.40625 -1 C 4.769531 -2 3.46875 -3.351562 2.5 -5.0625 C 1.53125 -6.769531 1.046875 -8.640625 1.046875 -10.671875 C 1.046875 -12.679688 1.53125 -14.535156 2.5 -16.234375 C 3.46875 -17.941406 4.773438 -19.289062 6.421875 -20.28125 C 8.078125 -21.28125 9.875 -21.78125 11.8125 -21.78125 C 13.789062 -21.78125 15.476562 -21.222656 16.875 -20.109375 Z M 12.46875 -5.84375 C 13.351562 -5.84375 14.148438 -6.046875 14.859375 -6.453125 C 15.578125 -6.859375 16.144531 -7.421875 16.5625 -8.140625 C 16.976562 -8.867188 17.1875 -9.691406 17.1875 -10.609375 C 17.1875 -11.523438 16.984375 -12.347656 16.578125 -13.078125 C 16.171875 -13.816406 15.609375 -14.394531 14.890625 -14.8125 C 14.171875 -15.226562 13.375 -15.4375 12.5 -15.4375 C 11.613281 -15.4375 10.816406 -15.226562 10.109375 -14.8125 C 9.398438 -14.394531 8.835938 -13.816406 8.421875 -13.078125 C 8.015625 -12.347656 7.8125 -11.523438 7.8125 -10.609375 C 7.8125 -9.691406 8.007812 -8.867188 8.40625 -8.140625 C 8.8125 -7.421875 9.367188 -6.859375 10.078125 -6.453125 C 10.785156 -6.046875 11.582031 -5.84375 12.46875 -5.84375 Z M 12.46875 -5.84375 "/></g></g><g style="fill:#000000;fill-opacity:1;"><g transform="translate(158.817369, 333.051921)"><path style="stroke:none" d="M 5.8125 -23.953125 C 5.019531 -23.953125 4.316406 -24.132812 3.703125 -24.5 C 3.085938 -24.875 2.609375 -25.359375 2.265625 -25.953125 C 1.921875 -26.554688 1.75 -27.1875 1.75 -27.84375 C 1.75 -28.5 1.921875 -29.128906 2.265625 -29.734375 C 2.609375 -30.335938 3.085938 -30.820312 3.703125 -31.1875 C 4.316406 -31.5625 5.03125 -31.75 5.84375 -31.75 C 6.632812 -31.75 7.335938 -31.5625 7.953125 -31.1875 C 8.566406 -30.820312 9.046875 -30.335938 9.390625 -29.734375 C 9.734375 -29.128906 9.90625 -28.5 9.90625 -27.84375 C 9.90625 -27.175781 9.734375 -26.546875 9.390625 -25.953125 C 9.046875 -25.359375 8.566406 -24.875 7.953125 -24.5 C 7.335938 -24.132812 6.625 -23.953125 5.8125 -23.953125 Z M 9.140625 0 L 2.328125 0 L 2.328125 -21.34375 L 9.140625 -21.34375 Z M 9.140625 0 "/></g></g><g style="fill:#000000;fill-opacity:1;"><g transform="translate(170.293092, 333.051921)"><path style="stroke:none" d="M 9.65625 0 L 2.859375 0 L 2.859375 -15.125 L 0.28125 -15.125 L 0.28125 -21.34375 L 2.84375 -21.34375 L 2.84375 -26.296875 L 9.6875 -27.984375 L 9.6875 -21.34375 L 13.8125 -21.34375 L 13.8125 -15.125 L 9.65625 -15.125 Z M 9.65625 0 "/></g></g><g style="fill:#000000;fill-opacity:1;"><g transform="translate(184.184753, 333.051921)"><path style="stroke:none" d="M 7.75 -8.46875 C 8.125 -7.394531 8.75 -6.566406 9.625 -5.984375 C 10.507812 -5.398438 11.53125 -5.109375 12.6875 -5.109375 C 13.5625 -5.109375 14.335938 -5.242188 15.015625 -5.515625 C 15.691406 -5.796875 16.320312 -6.191406 16.90625 -6.703125 L 20.015625 -2.234375 C 19.003906 -1.335938 17.84375 -0.644531 16.53125 -0.15625 C 15.226562 0.332031 13.796875 0.578125 12.234375 0.578125 C 10.109375 0.578125 8.191406 0.078125 6.484375 -0.921875 C 4.773438 -1.929688 3.441406 -3.285156 2.484375 -4.984375 C 1.523438 -6.691406 1.046875 -8.546875 1.046875 -10.546875 C 1.046875 -12.585938 1.5 -14.46875 2.40625 -16.1875 C 3.320312 -17.90625 4.585938 -19.265625 6.203125 -20.265625 C 7.828125 -21.273438 9.660156 -21.78125 11.703125 -21.78125 C 13.941406 -21.78125 15.863281 -21.3125 17.46875 -20.375 C 19.082031 -19.445312 20.304688 -18.148438 21.140625 -16.484375 C 21.972656 -14.828125 22.390625 -12.914062 22.390625 -10.75 C 22.390625 -10.007812 22.328125 -9.25 22.203125 -8.46875 Z M 11.984375 -16.328125 C 10.890625 -16.328125 9.960938 -16.03125 9.203125 -15.4375 C 8.453125 -14.851562 7.925781 -14.003906 7.625 -12.890625 L 16.171875 -12.890625 C 15.890625 -14.015625 15.390625 -14.867188 14.671875 -15.453125 C 13.953125 -16.035156 13.054688 -16.328125 11.984375 -16.328125 Z M 11.984375 -16.328125 "/></g></g><g style="fill:#000000;fill-opacity:1;"><g transform="translate(207.619391, 333.051921)"><path style="stroke:none" d=""/></g></g><g style="fill:#000000;fill-opacity:1;"><g transform="translate(217.04154, 333.051921)"><path style="stroke:none" d="M 28.3125 0 L 20.84375 0 L 19.328125 -4.421875 L 9.1875 -4.421875 L 7.671875 0 L 0.203125 0 L 11.109375 -28.328125 L 17.453125 -28.328125 Z M 13.9375 -18.40625 L 11.234375 -10.46875 L 17.296875 -10.46875 L 14.59375 -18.40625 L 14.28125 -19.6875 L 14.234375 -19.6875 Z M 13.9375 -18.40625 "/></g></g><g style="fill:#000000;fill-opacity:1;"><g transform="translate(245.54964, 333.051921)"><path style="stroke:none" d="M 10.0625 0 L 2.8125 0 L 2.8125 -28.28125 L 10.0625 -28.28125 Z M 10.0625 0 "/></g></g><g style="fill:#000000;fill-opacity:1;"><g transform="translate(258.43468, 333.051921)"><path style="stroke:none" d=""/></g></g><g style="fill:#000000;fill-opacity:1;"><g transform="translate(267.856829, 333.051921)"><path style="stroke:none" d="M 12.15625 0.484375 C 9.875 0.484375 7.738281 0.046875 5.75 -0.828125 C 3.769531 -1.703125 1.992188 -2.976562 0.421875 -4.65625 L 5.015625 -9.421875 C 7.222656 -7.285156 9.546875 -6.21875 11.984375 -6.21875 C 13.117188 -6.21875 13.96875 -6.410156 14.53125 -6.796875 C 15.09375 -7.191406 15.375 -7.722656 15.375 -8.390625 C 15.375 -8.847656 15.25 -9.242188 15 -9.578125 C 14.757812 -9.921875 14.285156 -10.257812 13.578125 -10.59375 C 12.867188 -10.925781 11.835938 -11.296875 10.484375 -11.703125 C 8.222656 -12.367188 6.289062 -13.363281 4.6875 -14.6875 C 3.082031 -16.007812 2.28125 -17.945312 2.28125 -20.5 C 2.28125 -21.988281 2.617188 -23.363281 3.296875 -24.625 C 3.972656 -25.882812 5.035156 -26.898438 6.484375 -27.671875 C 7.929688 -28.441406 9.753906 -28.828125 11.953125 -28.828125 C 14.078125 -28.828125 15.988281 -28.476562 17.6875 -27.78125 C 19.382812 -27.082031 20.9375 -26.085938 22.34375 -24.796875 L 18.265625 -19.8125 C 17.535156 -20.476562 16.625 -21.050781 15.53125 -21.53125 C 14.4375 -22.007812 13.347656 -22.25 12.265625 -22.25 C 11.378906 -22.25 10.695312 -22.066406 10.21875 -21.703125 C 9.75 -21.335938 9.515625 -20.847656 9.515625 -20.234375 C 9.515625 -19.867188 9.660156 -19.550781 9.953125 -19.28125 C 10.242188 -19.019531 10.644531 -18.78125 11.15625 -18.5625 C 11.664062 -18.34375 12.453125 -18.054688 13.515625 -17.703125 C 13.585938 -17.671875 13.664062 -17.640625 13.75 -17.609375 C 13.84375 -17.578125 13.953125 -17.539062 14.078125 -17.5 C 15.984375 -16.820312 17.554688 -16.097656 18.796875 -15.328125 C 20.046875 -14.566406 21.015625 -13.632812 21.703125 -12.53125 C 22.390625 -11.425781 22.734375 -10.09375 22.734375 -8.53125 C 22.734375 -6.738281 22.296875 -5.160156 21.421875 -3.796875 C 20.546875 -2.429688 19.3125 -1.375 17.71875 -0.625 C 16.125 0.113281 14.269531 0.484375 12.15625 0.484375 Z M 12.15625 0.484375 "/></g></g><g style="fill:#000000;fill-opacity:1;"><g transform="translate(291.955841, 333.051921)"><path style="stroke:none" d="M 8.671875 0 L 1.34375 0 L 5 -28.28125 L 13.125 -28.28125 L 18.1875 -10.03125 L 23.21875 -28.28125 L 31.359375 -28.28125 L 35.03125 0.015625 L 27.6875 0.015625 L 25.90625 -16.65625 L 21.375 0 L 15.0625 0 L 10.53125 -16.65625 Z M 8.671875 0 "/></g></g><g style="fill:#000000;fill-opacity:1;"><g transform="translate(328.335897, 333.051921)"><path style="stroke:none" d="M 8.671875 0 L 1.34375 0 L 5 -28.28125 L 13.125 -28.28125 L 18.1875 -10.03125 L 23.21875 -28.28125 L 31.359375 -28.28125 L 35.03125 0.015625 L 27.6875 0.015625 L 25.90625 -16.65625 L 21.375 0 L 15.0625 0 L 10.53125 -16.65625 Z M 8.671875 0 "/></g></g></g></svg>