<svg xmlns="http://www.w3.org/2000/svg" xmlns:xlink="http://www.w3.org/1999/xlink" width="500" zoomAndPan="magnify" viewBox="0 0 375 374.999991" height="500" preserveAspectRatio="xMidYMid meet" version="1.0"><defs><g/><clipPath id="7b142f4c8c"><path d="M 20.539062 13.160156 L 347 13.160156 L 347 264.789062 L 20.539062 264.789062 Z M 20.539062 13.160156 " clip-rule="nonzero"/></clipPath></defs><path fill="#000000" d="M 150.417969 204.777344 C 134.828125 206.726562 116.300781 208.765625 94.421875 210.902344 C 81.433594 212.167969 69.570312 221.941406 60.953125 231.398438 C 55.710938 237.164062 51.046875 243.363281 46.964844 249.996094 C 58.164062 242.972656 76.691406 240.117188 98.066406 237.820312 C 119.445312 235.519531 143.675781 233.78125 166.28125 228.992188 C 182.851562 225.484375 195.648438 219.367188 204.945312 212.226562 C 214.242188 205.085938 220.039062 196.925781 222.617188 189.332031 C 219.21875 192.34375 209.050781 195.601562 188.789062 199.171875 C 178.660156 200.960938 166.007812 202.824219 150.417969 204.777344 Z M 150.417969 204.777344 " fill-opacity="1" fill-rule="nonzero"/><path fill="#000000" d="M 222.164062 152.078125 C 211.246094 154.039062 198.320312 155.992188 182.96875 158.101562 C 181.191406 158.34375 179.382812 158.589844 177.542969 158.839844 C 159.511719 161.269531 138.3125 163.976562 113.3125 167.023438 C 100.367188 168.601562 89.386719 177.652344 81.585938 186.464844 C 76.71875 191.972656 72.496094 197.9375 68.917969 204.359375 C 73.191406 202.386719 84.050781 199.847656 89.761719 198.78125 C 103.003906 196.300781 116.511719 194.816406 129.882812 193.300781 C 140.855469 192.046875 151.546875 190.894531 161.96875 189.644531 C 178.613281 187.636719 194.371094 185.410156 209.636719 182.25 C 212.609375 181.632812 215.535156 180.96875 218.40625 180.257812 C 233.589844 176.480469 245.28125 169.5 253.960938 161.675781 C 263.3125 153.242188 269.152344 143.820312 271.855469 135.929688 C 264.683594 141.746094 252.335938 146.171875 230.707031 150.457031 C 228.003906 151 225.15625 151.539062 222.164062 152.078125 Z M 222.164062 152.078125 " fill-opacity="1" fill-rule="nonzero"/><path fill="#000000" d="M 208.964844 112.375 C 187.570312 115.441406 162.285156 118.882812 132.207031 123.148438 C 105.511719 126.933594 90.871094 158.722656 90.871094 158.722656 C 94.863281 157.636719 110.851562 154.886719 115.558594 154.308594 C 148.164062 150.296875 174.8125 147.359375 198.421875 144.273438 C 222.035156 141.1875 242.609375 137.957031 263.058594 133.355469 C 280.421875 129.40625 293.519531 120.796875 302.980469 111.125 C 312.441406 101.453125 318.269531 90.71875 321.097656 82.527344 C 308.609375 92.367188 291.464844 98.257812 262.402344 103.820312 C 247.871094 106.601562 230.363281 109.304688 208.964844 112.375 Z M 208.964844 112.375 " fill-opacity="1" fill-rule="nonzero"/><g clip-path="url(#7b142f4c8c)"><path fill="#000000" d="M 346.070312 13.265625 C 343.917969 31.9375 298.957031 51.152344 130.773438 78.742188 C 79.242188 87.195312 64.601562 105.738281 52.546875 145.097656 C 42.363281 178.339844 23.640625 252.113281 20.539062 264.695312 C 34.890625 255.230469 65.894531 181.808594 76.660156 157.964844 C 87.425781 134.121094 93.789062 116.195312 130.773438 110.910156 C 234.113281 96.152344 281.195312 87.066406 299.316406 80.574219 C 354.191406 60.90625 346.070312 13.265625 346.070312 13.265625 Z M 346.070312 13.265625 " fill-opacity="1" fill-rule="nonzero"/></g><g fill="#000000" fill-opacity="1"><g transform="translate(0.0123296, 311.199332)"><g><path d="M 10.609375 0 L 1.65625 0 L 6.109375 -34.609375 L 16.0625 -34.609375 L 22.25 -12.265625 L 28.40625 -34.609375 L 38.375 -34.609375 L 42.859375 0.03125 L 33.875 0.03125 L 31.703125 -20.375 L 26.15625 0 L 18.421875 0 L 12.890625 -20.375 Z M 10.609375 0 "/></g></g></g><g fill="#000000" fill-opacity="1"><g transform="translate(44.522105, 311.199332)"><g><path d="M 9.484375 -10.375 C 9.941406 -9.0625 10.707031 -8.046875 11.78125 -7.328125 C 12.863281 -6.609375 14.109375 -6.25 15.515625 -6.25 C 16.585938 -6.25 17.535156 -6.414062 18.359375 -6.75 C 19.191406 -7.09375 19.96875 -7.578125 20.6875 -8.203125 L 24.484375 -2.734375 C 23.253906 -1.628906 21.835938 -0.773438 20.234375 -0.171875 C 18.628906 0.421875 16.878906 0.71875 14.984375 0.71875 C 12.367188 0.71875 10.015625 0.101562 7.921875 -1.125 C 5.835938 -2.363281 4.207031 -4.023438 3.03125 -6.109375 C 1.863281 -8.191406 1.28125 -10.457031 1.28125 -12.90625 C 1.28125 -15.40625 1.835938 -17.703125 2.953125 -19.796875 C 4.066406 -21.898438 5.613281 -23.566406 7.59375 -24.796875 C 9.570312 -26.035156 11.8125 -26.65625 14.3125 -26.65625 C 17.050781 -26.65625 19.40625 -26.082031 21.375 -24.9375 C 23.351562 -23.800781 24.847656 -22.210938 25.859375 -20.171875 C 26.878906 -18.140625 27.390625 -15.800781 27.390625 -13.15625 C 27.390625 -12.25 27.316406 -11.320312 27.171875 -10.375 Z M 14.65625 -19.984375 C 13.320312 -19.984375 12.191406 -19.617188 11.265625 -18.890625 C 10.335938 -18.171875 9.691406 -17.128906 9.328125 -15.765625 L 19.78125 -15.765625 C 19.4375 -17.140625 18.820312 -18.1875 17.9375 -18.90625 C 17.0625 -19.625 15.96875 -19.984375 14.65625 -19.984375 Z M 14.65625 -19.984375 "/></g></g></g><g fill="#000000" fill-opacity="1"><g transform="translate(73.193598, 311.199332)"><g><path d="M 17.171875 -26.625 C 18.234375 -26.625 19.289062 -26.441406 20.34375 -26.078125 C 21.394531 -25.722656 22.398438 -25.191406 23.359375 -24.484375 L 19.6875 -17.71875 C 18.488281 -18.5625 17.296875 -18.984375 16.109375 -18.984375 C 15.234375 -18.984375 14.421875 -18.75 13.671875 -18.28125 C 12.929688 -17.820312 12.332031 -17.132812 11.875 -16.21875 C 11.414062 -15.3125 11.1875 -14.238281 11.1875 -13 L 11.1875 0 L 2.859375 0 L 2.859375 -26.109375 L 9.265625 -26.109375 L 10.5 -22.90625 C 11.238281 -24.09375 12.171875 -25.007812 13.296875 -25.65625 C 14.429688 -26.300781 15.722656 -26.625 17.171875 -26.625 Z M 17.171875 -26.625 "/></g></g></g><g fill="#000000" fill-opacity="1"><g transform="translate(94.105857, 311.199332)"><g><path d="M 14.984375 0.734375 C 12.367188 0.734375 10.015625 0.117188 7.921875 -1.109375 C 5.835938 -2.335938 4.207031 -3.992188 3.03125 -6.078125 C 1.863281 -8.171875 1.28125 -10.445312 1.28125 -12.90625 C 1.28125 -15.40625 1.867188 -17.703125 3.046875 -19.796875 C 4.234375 -21.898438 5.863281 -23.566406 7.9375 -24.796875 C 10.019531 -26.035156 12.359375 -26.65625 14.953125 -26.65625 C 16.835938 -26.65625 18.582031 -26.347656 20.1875 -25.734375 C 21.789062 -25.117188 23.179688 -24.273438 24.359375 -23.203125 L 20.265625 -17.25 C 19.515625 -17.851562 18.753906 -18.3125 17.984375 -18.625 C 17.222656 -18.9375 16.351562 -19.09375 15.375 -19.09375 C 14.320312 -19.09375 13.347656 -18.820312 12.453125 -18.28125 C 11.554688 -17.75 10.84375 -17.015625 10.3125 -16.078125 C 9.789062 -15.148438 9.53125 -14.09375 9.53125 -12.90625 C 9.53125 -11.769531 9.796875 -10.738281 10.328125 -9.8125 C 10.867188 -8.882812 11.582031 -8.15625 12.46875 -7.625 C 13.363281 -7.09375 14.332031 -6.828125 15.375 -6.828125 C 16.351562 -6.828125 17.222656 -6.984375 17.984375 -7.296875 C 18.753906 -7.609375 19.515625 -8.054688 20.265625 -8.640625 L 24.359375 -2.703125 C 23.191406 -1.640625 21.800781 -0.800781 20.1875 -0.1875 C 18.570312 0.425781 16.835938 0.734375 14.984375 0.734375 Z M 14.984375 0.734375 "/></g></g></g><g fill="#000000" fill-opacity="1"><g transform="translate(119.057937, 311.199332)"><g><path d="M 20.25 -26.109375 L 28.578125 -26.109375 L 28.578125 0 L 22.171875 0 L 20.96875 -3.125 C 19.957031 -2.039062 18.65625 -1.15625 17.0625 -0.46875 C 15.476562 0.207031 13.945312 0.546875 12.46875 0.546875 C 10.425781 0.546875 8.625 0.09375 7.0625 -0.8125 C 5.507812 -1.71875 4.300781 -3.023438 3.4375 -4.734375 C 2.570312 -6.441406 2.140625 -8.46875 2.140625 -10.8125 L 2.140625 -26.109375 L 10.46875 -26.109375 L 10.46875 -12.3125 C 10.46875 -10.65625 10.875 -9.363281 11.6875 -8.4375 C 12.5 -7.507812 13.597656 -7.046875 14.984375 -7.046875 C 15.929688 -7.046875 16.8125 -7.269531 17.625 -7.71875 C 18.4375 -8.175781 19.078125 -8.78125 19.546875 -9.53125 C 20.015625 -10.289062 20.25 -11.085938 20.25 -11.921875 Z M 20.25 -26.109375 "/></g></g></g><g fill="#000000" fill-opacity="1"><g transform="translate(150.51283, 311.199332)"><g><path d="M 17.171875 -26.625 C 18.234375 -26.625 19.289062 -26.441406 20.34375 -26.078125 C 21.394531 -25.722656 22.398438 -25.191406 23.359375 -24.484375 L 19.6875 -17.71875 C 18.488281 -18.5625 17.296875 -18.984375 16.109375 -18.984375 C 15.234375 -18.984375 14.421875 -18.75 13.671875 -18.28125 C 12.929688 -17.820312 12.332031 -17.132812 11.875 -16.21875 C 11.414062 -15.3125 11.1875 -14.238281 11.1875 -13 L 11.1875 0 L 2.859375 0 L 2.859375 -26.109375 L 9.265625 -26.109375 L 10.5 -22.90625 C 11.238281 -24.09375 12.171875 -25.007812 13.296875 -25.65625 C 14.429688 -26.300781 15.722656 -26.625 17.171875 -26.625 Z M 17.171875 -26.625 "/></g></g></g><g fill="#000000" fill-opacity="1"><g transform="translate(173.198779, 311.199332)"><g><path d="M 15.734375 8.75 L 6.875 8.75 L 10.5 -0.078125 L 0.171875 -26.109375 L 9.265625 -26.109375 L 14.609375 -9.75 L 19.953125 -26.109375 L 29.171875 -26.109375 Z M 15.734375 8.75 "/></g></g></g><g fill="#000000" fill-opacity="1"><g transform="translate(202.535336, 311.199332)"><g/></g></g><g fill="#000000" fill-opacity="1"><g transform="translate(214.063056, 311.199332)"><g><path d="M 34.640625 0 L 25.5 0 L 23.640625 -5.421875 L 11.234375 -5.421875 L 9.390625 0 L 0.25 0 L 13.59375 -34.65625 L 21.359375 -34.65625 Z M 17.046875 -22.515625 L 13.75 -12.8125 L 21.15625 -12.8125 L 17.859375 -22.515625 L 17.46875 -24.09375 L 17.421875 -24.09375 Z M 17.046875 -22.515625 "/></g></g></g><g fill="#000000" fill-opacity="1"><g transform="translate(248.941777, 311.199332)"><g><path d="M 12.3125 0 L 3.453125 0 L 3.453125 -34.609375 L 12.3125 -34.609375 Z M 12.3125 0 "/></g></g></g><g fill="#000000" fill-opacity="1"><g transform="translate(264.706168, 311.199332)"><g/></g></g><g fill="#000000" fill-opacity="1"><g transform="translate(276.233888, 311.199332)"><g><path d="M 14.875 0.59375 C 12.082031 0.59375 9.472656 0.0625 7.046875 -1 C 4.617188 -2.070312 2.441406 -3.632812 0.515625 -5.6875 L 6.140625 -11.53125 C 8.847656 -8.914062 11.6875 -7.609375 14.65625 -7.609375 C 16.050781 -7.609375 17.09375 -7.847656 17.78125 -8.328125 C 18.46875 -8.804688 18.8125 -9.453125 18.8125 -10.265625 C 18.8125 -10.828125 18.660156 -11.3125 18.359375 -11.71875 C 18.054688 -12.132812 17.472656 -12.546875 16.609375 -12.953125 C 15.753906 -13.367188 14.492188 -13.820312 12.828125 -14.3125 C 10.054688 -15.132812 7.6875 -16.351562 5.71875 -17.96875 C 3.757812 -19.582031 2.78125 -21.953125 2.78125 -25.078125 C 2.78125 -26.898438 3.191406 -28.582031 4.015625 -30.125 C 4.847656 -31.664062 6.148438 -32.910156 7.921875 -33.859375 C 9.703125 -34.804688 11.9375 -35.28125 14.625 -35.28125 C 17.226562 -35.28125 19.566406 -34.851562 21.640625 -34 C 23.710938 -33.144531 25.613281 -31.925781 27.34375 -30.34375 L 22.34375 -24.234375 C 21.457031 -25.054688 20.34375 -25.757812 19 -26.34375 C 17.664062 -26.925781 16.332031 -27.21875 15 -27.21875 C 13.914062 -27.21875 13.085938 -26.992188 12.515625 -26.546875 C 11.941406 -26.109375 11.65625 -25.507812 11.65625 -24.75 C 11.65625 -24.3125 11.828125 -23.925781 12.171875 -23.59375 C 12.523438 -23.269531 13.015625 -22.972656 13.640625 -22.703125 C 14.265625 -22.441406 15.226562 -22.09375 16.53125 -21.65625 C 16.625 -21.625 16.722656 -21.585938 16.828125 -21.546875 C 16.941406 -21.503906 17.070312 -21.457031 17.21875 -21.40625 C 19.550781 -20.582031 21.476562 -19.703125 23 -18.765625 C 24.53125 -17.828125 25.710938 -16.679688 26.546875 -15.328125 C 27.390625 -13.972656 27.8125 -12.34375 27.8125 -10.4375 C 27.8125 -8.238281 27.273438 -6.304688 26.203125 -4.640625 C 25.140625 -2.972656 23.628906 -1.679688 21.671875 -0.765625 C 19.722656 0.140625 17.457031 0.59375 14.875 0.59375 Z M 14.875 0.59375 "/></g></g></g><g fill="#000000" fill-opacity="1"><g transform="translate(305.718239, 311.199332)"><g><path d="M 3.453125 0 L 3.453125 -34.609375 L 16.484375 -34.609375 C 19.828125 -34.609375 22.890625 -33.851562 25.671875 -32.34375 C 28.460938 -30.832031 30.664062 -28.757812 32.28125 -26.125 C 33.894531 -23.488281 34.703125 -20.550781 34.703125 -17.3125 C 34.703125 -14.082031 33.894531 -11.144531 32.28125 -8.5 C 30.675781 -5.851562 28.484375 -3.773438 25.703125 -2.265625 C 22.929688 -0.753906 19.878906 0 16.546875 0 Z M 16.84375 -8.40625 C 18.539062 -8.40625 20.0625 -8.78125 21.40625 -9.53125 C 22.75 -10.289062 23.800781 -11.347656 24.5625 -12.703125 C 25.332031 -14.054688 25.71875 -15.59375 25.71875 -17.3125 C 25.71875 -19.019531 25.332031 -20.546875 24.5625 -21.890625 C 23.800781 -23.242188 22.742188 -24.300781 21.390625 -25.0625 C 20.035156 -25.820312 18.515625 -26.203125 16.828125 -26.203125 L 12.3125 -26.203125 L 12.3125 -8.40625 Z M 16.84375 -8.40625 "/></g></g></g><g fill="#000000" fill-opacity="1"><g transform="translate(342.198025, 311.199332)"><g><path d="M 32.125 0 L 22.125 0 L 16.953125 -11.0625 C 16.703125 -11.039062 16.347656 -11.03125 15.890625 -11.03125 L 12.3125 -11.03125 L 12.3125 0 L 3.453125 0 L 3.453125 -34.609375 L 18.40625 -34.609375 C 20.78125 -34.609375 22.882812 -34.109375 24.71875 -33.109375 C 26.5625 -32.117188 27.992188 -30.734375 29.015625 -28.953125 C 30.046875 -27.171875 30.5625 -25.128906 30.5625 -22.828125 C 30.5625 -20.628906 30.109375 -18.742188 29.203125 -17.171875 C 28.304688 -15.609375 27.046875 -14.332031 25.421875 -13.34375 Z M 12.3125 -26.609375 L 12.3125 -18.796875 L 17.59375 -18.796875 C 18.34375 -18.796875 19.019531 -18.972656 19.625 -19.328125 C 20.238281 -19.691406 20.71875 -20.175781 21.0625 -20.78125 C 21.40625 -21.394531 21.578125 -22.070312 21.578125 -22.8125 C 21.578125 -23.988281 21.195312 -24.914062 20.4375 -25.59375 C 19.6875 -26.269531 18.757812 -26.609375 17.65625 -26.609375 Z M 12.3125 -26.609375 "/></g></g></g></svg>