<svg xmlns="http://www.w3.org/2000/svg" xmlns:xlink="http://www.w3.org/1999/xlink" width="500" zoomAndPan="magnify" viewBox="0 0 375 374.999991" height="500" preserveAspectRatio="xMidYMid meet" version="1.0"><defs><g/><clipPath id="fe85369034"><path d="M 118 139.347656 L 218.761719 139.347656 L 218.761719 252.597656 L 118 252.597656 Z M 118 139.347656 " clip-rule="nonzero"/></clipPath><clipPath id="26b547ba45"><path d="M 198.132812 79 L 331.417969 79 L 331.417969 228.734375 L 198.132812 228.734375 Z M 198.132812 79 " clip-rule="nonzero"/></clipPath><clipPath id="3a80658a90"><path d="M 43.417969 43 L 177 43 L 177 193 L 43.417969 193 Z M 43.417969 43 " clip-rule="nonzero"/></clipPath></defs><path fill="#00adef" d="M 256.441406 83.523438 L 183.929688 19.019531 L 156.6875 43.25 L 256.441406 131.652344 L 256.441406 83.523438 " fill-opacity="1" fill-rule="nonzero"/><path fill="#2d3b92" d="M 183.945312 67.414062 L 156.683594 43.25 L 176.34375 74.171875 Z M 183.945312 67.414062 " fill-opacity="1" fill-rule="nonzero"/><g clip-path="url(#fe85369034)"><path fill="#8d9094" d="M 118.433594 188.09375 L 190.949219 252.597656 L 218.1875 228.367188 L 118.433594 139.964844 L 118.433594 188.09375 " fill-opacity="1" fill-rule="nonzero"/></g><path fill="#3c3b3c" d="M 190.929688 204.199219 L 218.1875 228.367188 L 198.527344 197.445312 Z M 190.929688 204.199219 " fill-opacity="1" fill-rule="nonzero"/><g clip-path="url(#26b547ba45)"><path fill="#525258" d="M 331.460938 79.082031 L 198.527344 197.445312 L 218.1875 228.367188 L 331.460938 127.421875 L 331.460938 79.082031 " fill-opacity="1" fill-rule="nonzero"/></g><g clip-path="url(#3a80658a90)"><path fill="#3a73c1" d="M 156.6875 43.25 L 129.558594 67.425781 L 129.558594 51.664062 L 107.316406 51.664062 L 97.46875 75.425781 L 107.316406 65.574219 L 107.316406 107.867188 L 97.46875 107.867188 L 97.46875 96.019531 L 43.417969 144.195312 L 43.417969 192.53125 L 176.34375 74.171875 L 156.6875 43.25 " fill-opacity="1" fill-rule="nonzero"/></g><path fill="#8d9094" d="M 184.601562 111.078125 L 167.648438 111.078125 L 167.648438 128.023438 L 184.601562 128.023438 L 184.601562 111.078125 " fill-opacity="1" fill-rule="nonzero"/><path fill="#525258" d="M 184.601562 151.9375 L 184.601562 135.46875 L 167.648438 151.9375 Z M 184.601562 151.9375 " fill-opacity="1" fill-rule="nonzero"/><path fill="#8d9094" d="M 167.648438 134.992188 L 167.648438 151.9375 L 184.601562 135.46875 L 184.601562 134.992188 L 167.648438 134.992188 " fill-opacity="1" fill-rule="nonzero"/><path fill="#8d9094" d="M 191.570312 111.078125 L 191.570312 128.023438 L 208.519531 111.078125 Z M 191.570312 111.078125 " fill-opacity="1" fill-rule="nonzero"/><path fill="#525258" d="M 191.570312 128.023438 L 208.519531 128.023438 L 208.519531 111.078125 Z M 191.570312 128.023438 " fill-opacity="1" fill-rule="nonzero"/><path fill="#525258" d="M 191.570312 151.9375 L 208.519531 151.9375 L 208.519531 134.992188 L 191.570312 134.992188 L 191.570312 151.9375 " fill-opacity="1" fill-rule="nonzero"/><g fill="#212932" fill-opacity="1"><g transform="translate(29.718428, 310.861517)"><g><path d="M 20.40625 -38.1875 C 24.289062 -38.1875 27.757812 -37.375 30.8125 -35.75 C 33.875 -34.132812 36.25 -31.878906 37.9375 -28.984375 C 39.625 -26.097656 40.46875 -22.800781 40.46875 -19.09375 C 40.46875 -15.382812 39.601562 -12.082031 37.875 -9.1875 C 36.15625 -6.300781 33.75 -4.046875 30.65625 -2.421875 C 27.5625 -0.804688 24.035156 0 20.078125 0 L 4.203125 0 L 4.203125 -38.1875 Z M 20.625 -7.25 C 22.726562 -7.25 24.625 -7.75 26.3125 -8.75 C 28.007812 -9.75 29.328125 -11.140625 30.265625 -12.921875 C 31.210938 -14.703125 31.6875 -16.738281 31.6875 -19.03125 C 31.6875 -21.320312 31.1875 -23.375 30.1875 -25.1875 C 29.1875 -27.007812 27.820312 -28.421875 26.09375 -29.421875 C 24.375 -30.421875 22.421875 -30.921875 20.234375 -30.921875 L 12.8125 -30.921875 L 12.8125 -7.25 Z M 20.625 -7.25 "/></g></g></g><g fill="#212932" fill-opacity="1"><g transform="translate(79.839831, 310.861517)"><g><path d="M 27.8125 -38.1875 L 36.484375 -38.1875 L 22.578125 -12.328125 L 22.578125 0 L 13.96875 0 L 13.96875 -12.109375 L -0.15625 -38.1875 L 8.515625 -38.1875 L 18.265625 -21.0625 Z M 27.8125 -38.1875 "/></g></g></g><g fill="#212932" fill-opacity="1"><g transform="translate(124.34392, 310.861517)"><g><path d="M 30.59375 -13.53125 L 30.59375 -38.1875 L 38.78125 -38.1875 L 38.78125 0 L 30.921875 0 L 12.4375 -24.546875 L 12.4375 0 L 4.203125 0 L 4.203125 -38.1875 L 12.0625 -38.1875 Z M 30.59375 -13.53125 "/></g></g></g><g fill="#212932" fill-opacity="1"><g transform="translate(175.501502, 310.861517)"><g><path d="M 41.625 0 L 32.40625 0 L 29.40625 -7.421875 L 11.734375 -7.421875 L 8.734375 0 L -0.15625 0 L 16.421875 -38.1875 L 25.3125 -38.1875 Z M 20.625 -29.1875 L 14.5625 -14.34375 L 26.625 -14.34375 Z M 20.625 -29.1875 "/></g></g></g><g fill="#212932" fill-opacity="1"><g transform="translate(225.077525, 310.861517)"><g><path d="M 29.34375 -27.546875 C 27.382812 -28.742188 25.300781 -29.695312 23.09375 -30.40625 C 20.894531 -31.113281 19.015625 -31.46875 17.453125 -31.46875 C 15.960938 -31.46875 14.78125 -31.195312 13.90625 -30.65625 C 13.03125 -30.113281 12.59375 -29.3125 12.59375 -28.25 C 12.59375 -26.90625 13.21875 -25.878906 14.46875 -25.171875 C 15.726562 -24.460938 17.671875 -23.726562 20.296875 -22.96875 C 22.910156 -22.195312 25.0625 -21.429688 26.75 -20.671875 C 28.445312 -19.910156 29.894531 -18.765625 31.09375 -17.234375 C 32.289062 -15.710938 32.890625 -13.695312 32.890625 -11.1875 C 32.890625 -8.75 32.242188 -6.644531 30.953125 -4.875 C 29.660156 -3.113281 27.882812 -1.78125 25.625 -0.875 C 23.375 0.03125 20.816406 0.484375 17.953125 0.484375 C 14.859375 0.484375 11.816406 -0.0546875 8.828125 -1.140625 C 5.847656 -2.234375 3.269531 -3.726562 1.09375 -5.625 L 4.53125 -12.65625 C 6.457031 -10.90625 8.675781 -9.503906 11.1875 -8.453125 C 13.695312 -7.398438 15.988281 -6.875 18.0625 -6.875 C 19.84375 -6.875 21.234375 -7.203125 22.234375 -7.859375 C 23.234375 -8.515625 23.734375 -9.457031 23.734375 -10.6875 C 23.734375 -11.664062 23.394531 -12.472656 22.71875 -13.109375 C 22.039062 -13.753906 21.179688 -14.273438 20.140625 -14.671875 C 19.109375 -15.066406 17.6875 -15.519531 15.875 -16.03125 C 13.257812 -16.757812 11.125 -17.488281 9.46875 -18.21875 C 7.8125 -18.945312 6.378906 -20.054688 5.171875 -21.546875 C 3.972656 -23.035156 3.375 -25.015625 3.375 -27.484375 C 3.375 -29.773438 3.992188 -31.785156 5.234375 -33.515625 C 6.472656 -35.242188 8.203125 -36.570312 10.421875 -37.5 C 12.640625 -38.425781 15.222656 -38.890625 18.171875 -38.890625 C 20.785156 -38.890625 23.363281 -38.503906 25.90625 -37.734375 C 28.457031 -36.972656 30.710938 -35.957031 32.671875 -34.6875 Z M 29.34375 -27.546875 "/></g></g></g><g fill="#212932" fill-opacity="1"><g transform="translate(268.000049, 310.861517)"><g><path d="M 0.4375 -30.875 L 0.4375 -38.1875 L 32.34375 -38.1875 L 32.34375 -30.875 L 20.671875 -30.875 L 20.671875 0 L 12.0625 0 L 12.0625 -30.875 Z M 0.4375 -30.875 "/></g></g></g><g fill="#212932" fill-opacity="1"><g transform="translate(308.959257, 310.861517)"><g><path d="M 27.8125 -38.1875 L 36.484375 -38.1875 L 22.578125 -12.328125 L 22.578125 0 L 13.96875 0 L 13.96875 -12.109375 L -0.15625 -38.1875 L 8.515625 -38.1875 L 18.265625 -21.0625 Z M 27.8125 -38.1875 "/></g></g></g><g fill="#212932" fill-opacity="1"><g transform="translate(72.860544, 348.705754)"><g><path d="M 18.703125 0 L 13.828125 0 L 10.796875 -5.453125 L 6.40625 -5.453125 L 6.40625 0 L 2.09375 0 L 2.09375 -19.078125 L 10.390625 -19.078125 C 12.878906 -19.078125 14.804688 -18.5 16.171875 -17.34375 C 17.535156 -16.195312 18.21875 -14.566406 18.21875 -12.453125 C 18.21875 -10.984375 17.910156 -9.722656 17.296875 -8.671875 C 16.691406 -7.628906 15.804688 -6.835938 14.640625 -6.296875 Z M 6.40625 -15.515625 L 6.40625 -9.046875 L 10.390625 -9.046875 C 11.585938 -9.046875 12.507812 -9.320312 13.15625 -9.875 C 13.800781 -10.4375 14.125 -11.253906 14.125 -12.328125 C 14.125 -13.378906 13.800781 -14.171875 13.15625 -14.703125 C 12.507812 -15.242188 11.585938 -15.515625 10.390625 -15.515625 Z M 6.40625 -15.515625 "/></g></g></g><g fill="#212932" fill-opacity="1"><g transform="translate(96.694256, 348.705754)"><g><path d="M 2.09375 0 L 2.09375 -19.078125 L 16.625 -19.078125 L 16.625 -15.515625 L 6.40625 -15.515625 L 6.40625 -11.375 L 15.59375 -11.375 L 15.59375 -7.796875 L 6.40625 -7.796875 L 6.40625 -3.578125 L 16.9375 -3.578125 L 16.9375 0 Z M 2.09375 0 "/></g></g></g><g fill="#212932" fill-opacity="1"><g transform="translate(119.000925, 348.705754)"><g><path d="M 20.796875 0 L 16.203125 0 L 14.703125 -3.703125 L 5.859375 -3.703125 L 4.359375 0 L -0.078125 0 L 8.203125 -19.078125 L 12.65625 -19.078125 Z M 10.3125 -14.59375 L 7.28125 -7.171875 L 13.3125 -7.171875 Z M 10.3125 -14.59375 "/></g></g></g><g fill="#212932" fill-opacity="1"><g transform="translate(143.789038, 348.705754)"><g><path d="M 2.09375 0 L 2.09375 -19.078125 L 6.40625 -19.078125 L 6.40625 -3.765625 L 14.59375 -3.765625 L 14.59375 0 Z M 2.09375 0 "/></g></g></g><g fill="#212932" fill-opacity="1"><g transform="translate(162.932569, 348.705754)"><g/></g></g><g fill="#212932" fill-opacity="1"><g transform="translate(174.386358, 348.705754)"><g><path d="M 2.09375 0 L 2.09375 -19.078125 L 16.625 -19.078125 L 16.625 -15.515625 L 6.40625 -15.515625 L 6.40625 -11.375 L 15.59375 -11.375 L 15.59375 -7.796875 L 6.40625 -7.796875 L 6.40625 -3.578125 L 16.9375 -3.578125 L 16.9375 0 Z M 2.09375 0 "/></g></g></g><g fill="#212932" fill-opacity="1"><g transform="translate(196.693029, 348.705754)"><g><path d="M 14.671875 -13.765625 C 13.691406 -14.367188 12.648438 -14.847656 11.546875 -15.203125 C 10.441406 -15.554688 9.5 -15.734375 8.71875 -15.734375 C 7.976562 -15.734375 7.390625 -15.597656 6.953125 -15.328125 C 6.515625 -15.054688 6.296875 -14.65625 6.296875 -14.125 C 6.296875 -13.445312 6.609375 -12.929688 7.234375 -12.578125 C 7.859375 -12.222656 8.828125 -11.859375 10.140625 -11.484375 C 11.453125 -11.097656 12.53125 -10.710938 13.375 -10.328125 C 14.21875 -9.953125 14.9375 -9.378906 15.53125 -8.609375 C 16.132812 -7.847656 16.4375 -6.84375 16.4375 -5.59375 C 16.4375 -4.375 16.113281 -3.320312 15.46875 -2.4375 C 14.820312 -1.5625 13.9375 -0.894531 12.8125 -0.4375 C 11.6875 0.0195312 10.40625 0.25 8.96875 0.25 C 7.425781 0.25 5.910156 -0.0195312 4.421875 -0.5625 C 2.929688 -1.113281 1.640625 -1.863281 0.546875 -2.8125 L 2.265625 -6.328125 C 3.222656 -5.453125 4.328125 -4.75 5.578125 -4.21875 C 6.835938 -3.695312 7.988281 -3.4375 9.03125 -3.4375 C 9.914062 -3.4375 10.609375 -3.597656 11.109375 -3.921875 C 11.609375 -4.253906 11.859375 -4.726562 11.859375 -5.34375 C 11.859375 -5.832031 11.691406 -6.234375 11.359375 -6.546875 C 11.023438 -6.867188 10.597656 -7.128906 10.078125 -7.328125 C 9.554688 -7.535156 8.84375 -7.765625 7.9375 -8.015625 C 6.625 -8.378906 5.550781 -8.742188 4.71875 -9.109375 C 3.894531 -9.472656 3.179688 -10.023438 2.578125 -10.765625 C 1.984375 -11.515625 1.6875 -12.503906 1.6875 -13.734375 C 1.6875 -14.878906 1.992188 -15.882812 2.609375 -16.75 C 3.234375 -17.613281 4.097656 -18.273438 5.203125 -18.734375 C 6.316406 -19.203125 7.609375 -19.4375 9.078125 -19.4375 C 10.390625 -19.4375 11.679688 -19.242188 12.953125 -18.859375 C 14.222656 -18.484375 15.347656 -17.976562 16.328125 -17.34375 Z M 14.671875 -13.765625 "/></g></g></g><g fill="#212932" fill-opacity="1"><g transform="translate(218.154389, 348.705754)"><g><path d="M 0.21875 -15.4375 L 0.21875 -19.078125 L 16.171875 -19.078125 L 16.171875 -15.4375 L 10.328125 -15.4375 L 10.328125 0 L 6.03125 0 L 6.03125 -15.4375 Z M 0.21875 -15.4375 "/></g></g></g><g fill="#212932" fill-opacity="1"><g transform="translate(238.634061, 348.705754)"><g><path d="M 20.796875 0 L 16.203125 0 L 14.703125 -3.703125 L 5.859375 -3.703125 L 4.359375 0 L -0.078125 0 L 8.203125 -19.078125 L 12.65625 -19.078125 Z M 10.3125 -14.59375 L 7.28125 -7.171875 L 13.3125 -7.171875 Z M 10.3125 -14.59375 "/></g></g></g><g fill="#212932" fill-opacity="1"><g transform="translate(263.422179, 348.705754)"><g><path d="M 0.21875 -15.4375 L 0.21875 -19.078125 L 16.171875 -19.078125 L 16.171875 -15.4375 L 10.328125 -15.4375 L 10.328125 0 L 6.03125 0 L 6.03125 -15.4375 Z M 0.21875 -15.4375 "/></g></g></g><g fill="#212932" fill-opacity="1"><g transform="translate(283.901861, 348.705754)"><g><path d="M 2.09375 0 L 2.09375 -19.078125 L 16.625 -19.078125 L 16.625 -15.515625 L 6.40625 -15.515625 L 6.40625 -11.375 L 15.59375 -11.375 L 15.59375 -7.796875 L 6.40625 -7.796875 L 6.40625 -3.578125 L 16.9375 -3.578125 L 16.9375 0 Z M 2.09375 0 "/></g></g></g></svg>