<svg xmlns="http://www.w3.org/2000/svg" xmlns:xlink="http://www.w3.org/1999/xlink" width="500" zoomAndPan="magnify" viewBox="0 0 375 374.999991" height="500" preserveAspectRatio="xMidYMid meet" version="1.0"><defs><g/><clipPath id="12e832f832"><path d="M 99 214.238281 L 268.4375 214.238281 L 268.4375 252.929688 L 99 252.929688 Z M 99 214.238281 " clip-rule="nonzero"/></clipPath></defs><g fill="#000000" fill-opacity="1"><g transform="translate(44.935074, 223.36381)"><g><path d="M 57.765625 -12.265625 L 30.71875 -12.265625 L 26.703125 0 L 0 0 L 29.6875 -81.15625 L 59.03125 -81.15625 L 88.609375 0 L 61.78125 0 Z M 51.578125 -31.40625 L 44.25 -53.984375 L 36.90625 -31.40625 Z M 51.578125 -31.40625 "/></g></g></g><g fill="#000000" fill-opacity="1"><g transform="translate(124.004881, 223.36381)"><g><path d="M 59.140625 13.1875 L 51.359375 0.34375 C 49.597656 0.644531 47.570312 0.796875 45.28125 0.796875 C 37.632812 0.796875 30.617188 -0.992188 24.234375 -4.578125 C 17.859375 -8.171875 12.796875 -13.140625 9.046875 -19.484375 C 5.304688 -25.828125 3.4375 -32.972656 3.4375 -40.921875 C 3.4375 -48.867188 5.304688 -56.015625 9.046875 -62.359375 C 12.796875 -68.703125 17.859375 -73.648438 24.234375 -77.203125 C 30.617188 -80.753906 37.632812 -82.53125 45.28125 -82.53125 C 52.914062 -82.53125 59.90625 -80.753906 66.25 -77.203125 C 72.59375 -73.648438 77.617188 -68.703125 81.328125 -62.359375 C 85.035156 -56.015625 86.890625 -48.867188 86.890625 -40.921875 C 86.890625 -34.421875 85.628906 -28.4375 83.109375 -22.96875 C 80.585938 -17.507812 77.109375 -12.875 72.671875 -9.0625 L 89.171875 13.1875 Z M 29.34375 -40.921875 C 29.34375 -35.421875 30.71875 -31.046875 33.46875 -27.796875 C 36.21875 -24.546875 40.15625 -22.921875 45.28125 -22.921875 C 50.320312 -22.921875 54.21875 -24.546875 56.96875 -27.796875 C 59.71875 -31.046875 61.09375 -35.421875 61.09375 -40.921875 C 61.09375 -46.492188 59.71875 -50.90625 56.96875 -54.15625 C 54.21875 -57.40625 50.320312 -59.03125 45.28125 -59.03125 C 40.15625 -59.03125 36.21875 -57.40625 33.46875 -54.15625 C 30.71875 -50.90625 29.34375 -46.492188 29.34375 -40.921875 Z M 29.34375 -40.921875 "/></g></g></g><g fill="#000000" fill-opacity="1"><g transform="translate(204.793647, 223.36381)"><g><path d="M 30.609375 -81.15625 L 30.609375 -35.421875 C 30.609375 -31.671875 31.425781 -28.707031 33.0625 -26.53125 C 34.707031 -24.351562 37.363281 -23.265625 41.03125 -23.265625 C 44.695312 -23.265625 47.410156 -24.351562 49.171875 -26.53125 C 50.929688 -28.707031 51.8125 -31.671875 51.8125 -35.421875 L 51.8125 -81.15625 L 77.140625 -81.15625 L 77.140625 -35.421875 C 77.140625 -27.703125 75.535156 -21.109375 72.328125 -15.640625 C 69.117188 -10.179688 64.722656 -6.078125 59.140625 -3.328125 C 53.566406 -0.578125 47.34375 0.796875 40.46875 0.796875 C 33.582031 0.796875 27.484375 -0.578125 22.171875 -3.328125 C 16.867188 -6.078125 12.722656 -10.164062 9.734375 -15.59375 C 6.753906 -21.019531 5.265625 -27.628906 5.265625 -35.421875 L 5.265625 -81.15625 Z M 30.609375 -81.15625 "/></g></g></g><g fill="#000000" fill-opacity="1"><g transform="translate(277.675149, 223.36381)"><g><path d="M 57.765625 -12.265625 L 30.71875 -12.265625 L 26.703125 0 L 0 0 L 29.6875 -81.15625 L 59.03125 -81.15625 L 88.609375 0 L 61.78125 0 Z M 51.578125 -31.40625 L 44.25 -53.984375 L 36.90625 -31.40625 Z M 51.578125 -31.40625 "/></g></g></g><path fill="#29abe2" d="M 8.871094 166.515625 C 7.003906 184.503906 12.777344 205.476562 31.378906 215.625 C 46.328125 223.78125 63.757812 225 80.429688 223.949219 C 98.789062 222.792969 116.855469 218.910156 134.542969 214 C 147.523438 210.398438 160.320312 206.171875 173.179688 202.207031 C 191.398438 196.582031 210.714844 192.519531 229.476562 195.929688 C 243.589844 198.496094 256.882812 205.375 267.1875 215.355469 C 253.796875 208.191406 238.289062 205.597656 223.230469 206.320312 C 216.605469 206.640625 210.0625 207.96875 203.632812 209.609375 C 166.964844 218.972656 132.898438 238.570312 95.277344 242.628906 C 83.441406 243.90625 71.234375 244.351562 59.394531 242.871094 C 40.125 240.464844 24.082031 231.125 14.1875 214.160156 C 5.863281 199.886719 2.964844 181.953125 8.871094 166.515625 " fill-opacity="1" fill-rule="nonzero"/><g clip-path="url(#12e832f832)"><path fill="#0071bc" d="M 166.847656 233.785156 C 184.011719 226.765625 200.378906 218.246094 218.703125 215.445312 C 235.839844 212.828125 254.542969 215.089844 268.445312 225.21875 C 254.089844 219.746094 239.675781 219.527344 225.355469 222.359375 C 208.023438 225.789062 190.277344 233.816406 173.640625 239.777344 C 162.304688 243.839844 151.71875 247.894531 139.882812 250.109375 C 126.449219 252.621094 112.632812 253.792969 99.058594 252.207031 C 124.191406 251.097656 145.265625 242.605469 166.847656 233.785156 " fill-opacity="1" fill-rule="nonzero"/></g><path fill="#0071bc" d="M 28.449219 163.375 C 30.484375 160.105469 33.242188 157.359375 36.777344 155.546875 C 42.113281 152.800781 48.984375 151.835938 54.648438 154.15625 C 53 153.480469 49.695312 154.082031 47.949219 154.257812 C 41.589844 154.894531 36.417969 159.046875 33.566406 164.699219 C 29.101562 173.550781 31.429688 186.011719 37.335938 193.675781 C 39.136719 196.011719 42.527344 198.351562 45.027344 199.90625 C 60.753906 209.667969 80.335938 207.816406 97.722656 204.523438 C 102.6875 203.585938 108.796875 202.945312 113.71875 201.804688 C 128.070312 198.480469 141.257812 194.761719 155.558594 191.253906 C 155.558594 191.253906 150.414062 193.183594 149.328125 193.589844 C 147.164062 194.402344 144.996094 195.214844 142.828125 196.027344 C 125.515625 202.519531 108.089844 208.945312 89.828125 212.203125 C 75.65625 214.730469 60.847656 216.09375 47.097656 210.863281 C 37.949219 207.382812 29.734375 200.839844 26.171875 191.714844 C 22.820312 183.136719 23.34375 171.589844 28.449219 163.375 " fill-opacity="1" fill-rule="nonzero"/><path fill="#29abe2" d="M 54.386719 191.917969 C 46.125 184.878906 44.734375 172.941406 51.28125 165.25 C 53.574219 162.558594 56.535156 160.742188 59.769531 159.824219 C 55.050781 160.300781 50.601562 162.449219 47.390625 166.21875 C 40.457031 174.363281 41.929688 187.011719 50.683594 194.46875 C 59.4375 201.925781 72.15625 201.367188 79.089844 193.21875 C 79.453125 192.792969 79.789062 192.359375 80.105469 191.910156 C 73.378906 198.460938 62.207031 198.578125 54.386719 191.917969 " fill-opacity="1" fill-rule="nonzero"/><g fill="#000000" fill-opacity="1"><g transform="translate(73.139357, 270.51579)"><g><path d="M 11.0625 -10.03125 C 11.0625 -8.851562 10.65625 -7.875 9.84375 -7.09375 C 9.03125 -6.3125 7.800781 -5.921875 6.15625 -5.921875 L 3.421875 -5.921875 L 3.421875 0 L 1.5625 0 L 1.5625 -14.1875 L 6.15625 -14.1875 C 7.75 -14.1875 8.960938 -13.800781 9.796875 -13.03125 C 10.640625 -12.257812 11.0625 -11.257812 11.0625 -10.03125 Z M 6.15625 -7.453125 C 7.1875 -7.453125 7.941406 -7.675781 8.421875 -8.125 C 8.910156 -8.570312 9.15625 -9.207031 9.15625 -10.03125 C 9.15625 -11.78125 8.15625 -12.65625 6.15625 -12.65625 L 3.421875 -12.65625 L 3.421875 -7.453125 Z M 6.15625 -7.453125 "/></g></g></g><g fill="#000000" fill-opacity="1"><g transform="translate(101.220136, 270.51579)"><g><path d="M 3.375 -14.1875 L 3.375 -5.21875 C 3.375 -3.945312 3.679688 -3.003906 4.296875 -2.390625 C 4.921875 -1.785156 5.78125 -1.484375 6.875 -1.484375 C 7.96875 -1.484375 8.820312 -1.785156 9.4375 -2.390625 C 10.050781 -3.003906 10.359375 -3.945312 10.359375 -5.21875 L 10.359375 -14.1875 L 12.21875 -14.1875 L 12.21875 -5.234375 C 12.21875 -4.054688 11.976562 -3.0625 11.5 -2.25 C 11.03125 -1.4375 10.390625 -0.832031 9.578125 -0.4375 C 8.773438 -0.0507812 7.867188 0.140625 6.859375 0.140625 C 5.859375 0.140625 4.953125 -0.0507812 4.140625 -0.4375 C 3.335938 -0.832031 2.703125 -1.4375 2.234375 -2.25 C 1.765625 -3.0625 1.53125 -4.054688 1.53125 -5.234375 L 1.53125 -14.1875 Z M 3.375 -14.1875 "/></g></g></g><g fill="#000000" fill-opacity="1"><g transform="translate(131.254908, 270.51579)"><g><path d="M 9.046875 0 L 5.65625 -5.796875 L 3.421875 -5.796875 L 3.421875 0 L 1.5625 0 L 1.5625 -14.1875 L 6.15625 -14.1875 C 7.21875 -14.1875 8.117188 -14.003906 8.859375 -13.640625 C 9.597656 -13.273438 10.148438 -12.78125 10.515625 -12.15625 C 10.890625 -11.53125 11.078125 -10.816406 11.078125 -10.015625 C 11.078125 -9.035156 10.796875 -8.171875 10.234375 -7.421875 C 9.671875 -6.679688 8.828125 -6.1875 7.703125 -5.9375 L 11.265625 0 Z M 3.421875 -7.28125 L 6.15625 -7.28125 C 7.15625 -7.28125 7.90625 -7.53125 8.40625 -8.03125 C 8.90625 -8.53125 9.15625 -9.191406 9.15625 -10.015625 C 9.15625 -10.859375 8.90625 -11.507812 8.40625 -11.96875 C 7.914062 -12.425781 7.164062 -12.65625 6.15625 -12.65625 L 3.421875 -12.65625 Z M 3.421875 -7.28125 "/></g></g></g><g fill="#000000" fill-opacity="1"><g transform="translate(159.925951, 270.51579)"><g><path d="M 3.421875 -12.6875 L 3.421875 -7.9375 L 8.59375 -7.9375 L 8.59375 -6.40625 L 3.421875 -6.40625 L 3.421875 -1.53125 L 9.203125 -1.53125 L 9.203125 0 L 1.5625 0 L 1.5625 -14.203125 L 9.203125 -14.203125 L 9.203125 -12.6875 Z M 3.421875 -12.6875 "/></g></g></g><g fill="#000000" fill-opacity="1"><g transform="translate(186.663345, 270.51579)"><g/></g></g><g fill="#000000" fill-opacity="1"><g transform="translate(208.393632, 270.51579)"><g><path d="M 11.0625 -10.03125 C 11.0625 -8.851562 10.65625 -7.875 9.84375 -7.09375 C 9.03125 -6.3125 7.800781 -5.921875 6.15625 -5.921875 L 3.421875 -5.921875 L 3.421875 0 L 1.5625 0 L 1.5625 -14.1875 L 6.15625 -14.1875 C 7.75 -14.1875 8.960938 -13.800781 9.796875 -13.03125 C 10.640625 -12.257812 11.0625 -11.257812 11.0625 -10.03125 Z M 6.15625 -7.453125 C 7.1875 -7.453125 7.941406 -7.675781 8.421875 -8.125 C 8.910156 -8.570312 9.15625 -9.207031 9.15625 -10.03125 C 9.15625 -11.78125 8.15625 -12.65625 6.15625 -12.65625 L 3.421875 -12.65625 L 3.421875 -7.453125 Z M 6.15625 -7.453125 "/></g></g></g><g fill="#000000" fill-opacity="1"><g transform="translate(236.474418, 270.51579)"><g><path d="M 8 0.140625 C 6.6875 0.140625 5.484375 -0.164062 4.390625 -0.78125 C 3.304688 -1.394531 2.445312 -2.253906 1.8125 -3.359375 C 1.1875 -4.472656 0.875 -5.722656 0.875 -7.109375 C 0.875 -8.492188 1.1875 -9.738281 1.8125 -10.84375 C 2.445312 -11.945312 3.304688 -12.804688 4.390625 -13.421875 C 5.484375 -14.046875 6.6875 -14.359375 8 -14.359375 C 9.332031 -14.359375 10.539062 -14.046875 11.625 -13.421875 C 12.707031 -12.804688 13.5625 -11.945312 14.1875 -10.84375 C 14.8125 -9.75 15.125 -8.503906 15.125 -7.109375 C 15.125 -5.710938 14.8125 -4.460938 14.1875 -3.359375 C 13.5625 -2.253906 12.707031 -1.394531 11.625 -0.78125 C 10.539062 -0.164062 9.332031 0.140625 8 0.140625 Z M 8 -1.46875 C 8.988281 -1.46875 9.878906 -1.695312 10.671875 -2.15625 C 11.472656 -2.613281 12.097656 -3.269531 12.546875 -4.125 C 13.003906 -4.988281 13.234375 -5.984375 13.234375 -7.109375 C 13.234375 -8.242188 13.003906 -9.234375 12.546875 -10.078125 C 12.097656 -10.929688 11.476562 -11.585938 10.6875 -12.046875 C 9.894531 -12.515625 9 -12.75 8 -12.75 C 7 -12.75 6.101562 -12.515625 5.3125 -12.046875 C 4.53125 -11.585938 3.910156 -10.929688 3.453125 -10.078125 C 2.992188 -9.234375 2.765625 -8.242188 2.765625 -7.109375 C 2.765625 -5.984375 2.992188 -4.988281 3.453125 -4.125 C 3.910156 -3.269531 4.535156 -2.613281 5.328125 -2.15625 C 6.117188 -1.695312 7.007812 -1.46875 8 -1.46875 Z M 8 -1.46875 "/></g></g></g><g fill="#000000" fill-opacity="1"><g transform="translate(268.76848, 270.51579)"><g><path d="M 8 0.140625 C 6.6875 0.140625 5.484375 -0.164062 4.390625 -0.78125 C 3.304688 -1.394531 2.445312 -2.253906 1.8125 -3.359375 C 1.1875 -4.472656 0.875 -5.722656 0.875 -7.109375 C 0.875 -8.492188 1.1875 -9.738281 1.8125 -10.84375 C 2.445312 -11.945312 3.304688 -12.804688 4.390625 -13.421875 C 5.484375 -14.046875 6.6875 -14.359375 8 -14.359375 C 9.332031 -14.359375 10.539062 -14.046875 11.625 -13.421875 C 12.707031 -12.804688 13.5625 -11.945312 14.1875 -10.84375 C 14.8125 -9.75 15.125 -8.503906 15.125 -7.109375 C 15.125 -5.710938 14.8125 -4.460938 14.1875 -3.359375 C 13.5625 -2.253906 12.707031 -1.394531 11.625 -0.78125 C 10.539062 -0.164062 9.332031 0.140625 8 0.140625 Z M 8 -1.46875 C 8.988281 -1.46875 9.878906 -1.695312 10.671875 -2.15625 C 11.472656 -2.613281 12.097656 -3.269531 12.546875 -4.125 C 13.003906 -4.988281 13.234375 -5.984375 13.234375 -7.109375 C 13.234375 -8.242188 13.003906 -9.234375 12.546875 -10.078125 C 12.097656 -10.929688 11.476562 -11.585938 10.6875 -12.046875 C 9.894531 -12.515625 9 -12.75 8 -12.75 C 7 -12.75 6.101562 -12.515625 5.3125 -12.046875 C 4.53125 -11.585938 3.910156 -10.929688 3.453125 -10.078125 C 2.992188 -9.234375 2.765625 -8.242188 2.765625 -7.109375 C 2.765625 -5.984375 2.992188 -4.988281 3.453125 -4.125 C 3.910156 -3.269531 4.535156 -2.613281 5.328125 -2.15625 C 6.117188 -1.695312 7.007812 -1.46875 8 -1.46875 Z M 8 -1.46875 "/></g></g></g><g fill="#000000" fill-opacity="1"><g transform="translate(301.062541, 270.51579)"><g><path d="M 3.421875 -1.5 L 8.390625 -1.5 L 8.390625 0 L 1.5625 0 L 1.5625 -14.1875 L 3.421875 -14.1875 Z M 3.421875 -1.5 "/></g></g></g><g fill="#000000" fill-opacity="1"><g transform="translate(326.151256, 270.51579)"><g><path d="M 6.0625 0.140625 C 5.125 0.140625 4.285156 -0.0234375 3.546875 -0.359375 C 2.804688 -0.691406 2.226562 -1.148438 1.8125 -1.734375 C 1.394531 -2.328125 1.175781 -3.007812 1.15625 -3.78125 L 3.140625 -3.78125 C 3.203125 -3.125 3.472656 -2.566406 3.953125 -2.109375 C 4.441406 -1.648438 5.144531 -1.421875 6.0625 -1.421875 C 6.945312 -1.421875 7.644531 -1.640625 8.15625 -2.078125 C 8.664062 -2.523438 8.921875 -3.09375 8.921875 -3.78125 C 8.921875 -4.320312 8.769531 -4.765625 8.46875 -5.109375 C 8.164062 -5.453125 7.789062 -5.710938 7.34375 -5.890625 C 6.894531 -6.066406 6.289062 -6.253906 5.53125 -6.453125 C 4.601562 -6.703125 3.851562 -6.945312 3.28125 -7.1875 C 2.71875 -7.425781 2.234375 -7.804688 1.828125 -8.328125 C 1.429688 -8.859375 1.234375 -9.5625 1.234375 -10.4375 C 1.234375 -11.21875 1.429688 -11.90625 1.828125 -12.5 C 2.222656 -13.09375 2.773438 -13.550781 3.484375 -13.875 C 4.203125 -14.207031 5.019531 -14.375 5.9375 -14.375 C 7.269531 -14.375 8.359375 -14.039062 9.203125 -13.375 C 10.054688 -12.707031 10.535156 -11.828125 10.640625 -10.734375 L 8.609375 -10.734375 C 8.546875 -11.273438 8.257812 -11.75 7.75 -12.15625 C 7.25 -12.570312 6.585938 -12.78125 5.765625 -12.78125 C 4.984375 -12.78125 4.347656 -12.578125 3.859375 -12.171875 C 3.378906 -11.773438 3.140625 -11.21875 3.140625 -10.5 C 3.140625 -9.988281 3.285156 -9.566406 3.578125 -9.234375 C 3.867188 -8.910156 4.226562 -8.664062 4.65625 -8.5 C 5.082031 -8.332031 5.679688 -8.140625 6.453125 -7.921875 C 7.390625 -7.660156 8.140625 -7.40625 8.703125 -7.15625 C 9.273438 -6.90625 9.765625 -6.519531 10.171875 -6 C 10.585938 -5.476562 10.796875 -4.769531 10.796875 -3.875 C 10.796875 -3.175781 10.609375 -2.519531 10.234375 -1.90625 C 9.867188 -1.300781 9.328125 -0.804688 8.609375 -0.421875 C 7.890625 -0.046875 7.039062 0.140625 6.0625 0.140625 Z M 6.0625 0.140625 "/></g></g></g></svg>