<svg xmlns="http://www.w3.org/2000/svg" xmlns:xlink="http://www.w3.org/1999/xlink" width="500" zoomAndPan="magnify" viewBox="0 0 375 374.999991" height="500" preserveAspectRatio="xMidYMid meet" version="1.0"><defs><clipPath id="db60d1365b"><path d="M 26.28125 0 L 348.78125 0 L 348.78125 366.75 L 26.28125 366.75 Z M 26.28125 0 " clip-rule="nonzero"/></clipPath></defs><g clip-path="url(#db60d1365b)"><path fill="#000000" d="M 82.058594 271.871094 L 26.28125 271.871094 C 40.851562 265.339844 50.914062 245.828125 50.914062 219.78125 L 50.898438 51.914062 C 50.898438 25.875 40.851562 6.582031 26.28125 0.046875 L 81.699219 0.046875 L 148.234375 170.613281 L 220.007812 0.175781 L 220.007812 0.046875 L 220.066406 0.046875 C 220.066406 0.046875 230.28125 0.046875 230.28125 0.046875 C 230.28125 0.046875 270.703125 0.046875 270.703125 0.046875 C 256.132812 6.574219 246.089844 25.964844 246.089844 51.988281 L 246.089844 82.886719 C 230.824219 86.421875 220.007812 95.503906 220.007812 95.503906 L 220.007812 24.695312 L 155.15625 180.332031 C 146.378906 184.402344 136.109375 194.675781 130.101562 204.355469 L 57.425781 24.476562 L 57.425781 219.984375 C 57.425781 246.023438 67.46875 265.332031 82.058594 271.859375 Z M 214.351562 152.835938 C 214.351562 131.304688 229.589844 101.164062 265.015625 101.164062 C 316.085938 101.164062 339.722656 182.785156 339.722656 182.785156 L 339.722656 112.265625 C 320.328125 101.96875 296.507812 93.292969 264.8125 93.292969 C 228.074219 93.292969 203.378906 122.292969 203.378906 157.835938 C 203.378906 256.816406 336.875 231.226562 336.875 291.511719 C 336.875 313.863281 310.640625 353.53125 255.507812 353.53125 C 204.140625 353.53125 142.261719 317.4375 142.261719 255.605469 C 142.261719 201.960938 185.980469 183.011719 185.980469 183.011719 L 185.019531 178.664062 C 185.019531 178.664062 128.277344 200.511719 128.277344 270.109375 C 128.277344 329.324219 180.136719 366.351562 241.773438 366.351562 C 307.984375 366.351562 348.679688 322.507812 348.679688 281.605469 C 348.679688 197.875 214.34375 221.667969 214.34375 152.835938 Z M 214.351562 152.835938 " fill-opacity="1" fill-rule="nonzero"/></g></svg>